<mxfile host="www.draw.io" modified="2020-02-05T03:18:51.782Z" agent="Mozilla/5.0 (Windows NT 6.1; Win64; x64) AppleWebKit/537.36 (KHTML, like Gecko) Chrome/79.0.3945.117 Safari/537.36" etag="Y8GRjK3a6LPtUugWlw0A" version="12.5.4" type="github">
  <diagram id="PkoRvBVkpl1wG78z6C93" name="第 1 页">
    <mxGraphModel dx="978" dy="348" grid="1" gridSize="10" guides="1" tooltips="1" connect="1" arrows="1" fold="1" page="1" pageScale="1" pageWidth="2339" pageHeight="3300" math="0" shadow="0">
      <root>
        <mxCell id="0"/>
        <mxCell id="1" parent="0"/>
        <mxCell id="vN8L1wxS-TLqOdtid_vG-1" value="&lt;span style=&quot;color: rgb(89 , 103 , 128) ; font-size: 11px ; text-align: left&quot;&gt;键盘设置&lt;/span&gt;" style="dashed=0;html=1;rounded=1;fillColor=#DFE1E6;strokeColor=#DFE1E6;fontSize=12;align=center;fontStyle=1;strokeWidth=2;fontColor=#42526E" parent="1" vertex="1">
          <mxGeometry x="119" y="65" width="90" height="30" as="geometry"/>
        </mxCell>
        <mxCell id="vN8L1wxS-TLqOdtid_vG-15" value="手机" style="html=1;shadow=0;dashed=0;shape=mxgraph.atlassian.checkbox_2;fillColor=#0057D8;strokeColor=none;align=left;verticalAlign=middle;fontStyle=0;fontSize=12;labelPosition=right;verticalLabelPosition=middle;spacingLeft=10" parent="1" vertex="1">
          <mxGeometry x="125.5" y="110" width="12" height="12" as="geometry"/>
        </mxCell>
        <mxCell id="vN8L1wxS-TLqOdtid_vG-16" value="PAD" style="rounded=1;fillColor=#F0F2F5;strokeColor=#D8DCE3;align=left;verticalAlign=middle;fontStyle=0;fontSize=12;labelPosition=right;verticalLabelPosition=middle;spacingLeft=10;html=1;shadow=0;dashed=0;arcSize=0;" parent="1" vertex="1">
          <mxGeometry x="221" y="110" width="12" height="12" as="geometry"/>
        </mxCell>
        <mxCell id="vN8L1wxS-TLqOdtid_vG-19" value="宽" style="fillColor=none;strokeColor=none;html=1;fontSize=11;fontStyle=0;align=center;fontColor=#596780;fontStyle=1;fontSize=11" parent="1" vertex="1">
          <mxGeometry x="100.5" y="227" width="60" height="20" as="geometry"/>
        </mxCell>
        <mxCell id="vN8L1wxS-TLqOdtid_vG-20" value="1080" style="rounded=1;arcSize=9;fillColor=#F7F8F9;align=left;spacingLeft=5;strokeColor=#DEE1E6;html=1;strokeWidth=2;fontSize=12" parent="1" vertex="1">
          <mxGeometry x="180.5" y="222" width="100" height="30" as="geometry"/>
        </mxCell>
        <mxCell id="vN8L1wxS-TLqOdtid_vG-21" value="高" style="fillColor=none;strokeColor=none;html=1;fontSize=11;fontStyle=0;align=center;fontColor=#596780;fontStyle=1;fontSize=11" parent="1" vertex="1">
          <mxGeometry x="360.5" y="227" width="60" height="20" as="geometry"/>
        </mxCell>
        <mxCell id="vN8L1wxS-TLqOdtid_vG-22" value="699" style="rounded=1;arcSize=9;fillColor=#F7F8F9;align=left;spacingLeft=5;strokeColor=#DEE1E6;html=1;strokeWidth=2;fontSize=12" parent="1" vertex="1">
          <mxGeometry x="430.5" y="222" width="100" height="30" as="geometry"/>
        </mxCell>
        <mxCell id="vN8L1wxS-TLqOdtid_vG-23" value="边距" style="fillColor=none;strokeColor=none;html=1;fontSize=11;fontStyle=0;align=left;fontColor=#596780;fontStyle=1;fontSize=11" parent="1" vertex="1">
          <mxGeometry x="115" y="285" width="50" height="15" as="geometry"/>
        </mxCell>
        <mxCell id="vN8L1wxS-TLqOdtid_vG-24" value="45" style="rounded=1;arcSize=9;fillColor=#F7F8F9;align=left;spacingLeft=5;strokeColor=#DEE1E6;html=1;strokeWidth=2;fontSize=12" parent="1" vertex="1">
          <mxGeometry x="177.5" y="282.5" width="62" height="20" as="geometry"/>
        </mxCell>
        <mxCell id="vN8L1wxS-TLqOdtid_vG-25" value="45" style="rounded=1;arcSize=9;fillColor=#F7F8F9;align=left;spacingLeft=5;strokeColor=#DEE1E6;html=1;strokeWidth=2;fontSize=12" parent="1" vertex="1">
          <mxGeometry x="258.5" y="282.5" width="62" height="20" as="geometry"/>
        </mxCell>
        <mxCell id="vN8L1wxS-TLqOdtid_vG-26" value="45" style="rounded=1;arcSize=9;fillColor=#F7F8F9;align=left;spacingLeft=5;strokeColor=#DEE1E6;html=1;strokeWidth=2;fontSize=12" parent="1" vertex="1">
          <mxGeometry x="336" y="282.5" width="62" height="20" as="geometry"/>
        </mxCell>
        <mxCell id="vN8L1wxS-TLqOdtid_vG-27" value="45" style="rounded=1;arcSize=9;fillColor=#F7F8F9;align=left;spacingLeft=5;strokeColor=#DEE1E6;html=1;strokeWidth=2;fontSize=12" parent="1" vertex="1">
          <mxGeometry x="417" y="282.5" width="62" height="20" as="geometry"/>
        </mxCell>
        <mxCell id="vN8L1wxS-TLqOdtid_vG-28" value="背景图" style="fillColor=none;strokeColor=none;html=1;fontSize=11;fontStyle=0;align=center;fontColor=#596780;fontStyle=1;fontSize=11" parent="1" vertex="1">
          <mxGeometry x="100.5" y="327" width="60" height="20" as="geometry"/>
        </mxCell>
        <mxCell id="vN8L1wxS-TLqOdtid_vG-29" value="" style="rounded=1;arcSize=9;fillColor=#F7F8F9;align=left;spacingLeft=5;strokeColor=#DEE1E6;html=1;strokeWidth=2;fontSize=12" parent="1" vertex="1">
          <mxGeometry x="180.5" y="322" width="100" height="30" as="geometry"/>
        </mxCell>
        <mxCell id="vN8L1wxS-TLqOdtid_vG-30" value="水平间隔" style="fillColor=none;strokeColor=none;html=1;fontSize=11;fontStyle=0;align=center;fontColor=#596780;fontStyle=1;fontSize=11" parent="1" vertex="1">
          <mxGeometry x="84.5" y="433" width="60" height="20" as="geometry"/>
        </mxCell>
        <mxCell id="vN8L1wxS-TLqOdtid_vG-31" value="" style="rounded=1;arcSize=9;fillColor=#F7F8F9;align=left;spacingLeft=5;strokeColor=#DEE1E6;html=1;strokeWidth=2;fontSize=12" parent="1" vertex="1">
          <mxGeometry x="164.5" y="428" width="100" height="30" as="geometry"/>
        </mxCell>
        <mxCell id="vN8L1wxS-TLqOdtid_vG-32" value="垂直间隔" style="fillColor=none;strokeColor=none;html=1;fontSize=11;fontStyle=0;align=center;fontColor=#596780;fontStyle=1;fontSize=11" parent="1" vertex="1">
          <mxGeometry x="294" y="433" width="60" height="20" as="geometry"/>
        </mxCell>
        <mxCell id="vN8L1wxS-TLqOdtid_vG-33" value="" style="rounded=1;arcSize=9;fillColor=#F7F8F9;align=left;spacingLeft=5;strokeColor=#DEE1E6;html=1;strokeWidth=2;fontSize=12" parent="1" vertex="1">
          <mxGeometry x="374" y="428" width="100" height="30" as="geometry"/>
        </mxCell>
        <mxCell id="vN8L1wxS-TLqOdtid_vG-34" value="键盘名称" style="fillColor=none;strokeColor=none;html=1;fontSize=11;fontStyle=0;align=center;fontColor=#596780;fontStyle=1;fontSize=11" parent="1" vertex="1">
          <mxGeometry x="112.5" y="189.5" width="60" height="20" as="geometry"/>
        </mxCell>
        <mxCell id="tmjR7Qj9dmBTTIml7QTe-14" style="edgeStyle=orthogonalEdgeStyle;rounded=0;orthogonalLoop=1;jettySize=auto;html=1;" parent="1" source="vN8L1wxS-TLqOdtid_vG-44" edge="1">
          <mxGeometry relative="1" as="geometry">
            <mxPoint x="630" y="196.5" as="targetPoint"/>
          </mxGeometry>
        </mxCell>
        <mxCell id="vN8L1wxS-TLqOdtid_vG-44" value="数字键盘" style="rounded=1;fillColor=#253858;strokeColor=none;html=1;fontColor=#ffffff;align=left;fontSize=12;spacingLeft=10" parent="1" vertex="1">
          <mxGeometry x="187.5" y="180" width="100" height="33" as="geometry"/>
        </mxCell>
        <mxCell id="vN8L1wxS-TLqOdtid_vG-45" value="" style="shape=triangle;direction=south;fillColor=#ffffff;strokeColor=none;html=1" parent="vN8L1wxS-TLqOdtid_vG-44" vertex="1">
          <mxGeometry x="1" y="0.5" width="12" height="6" relative="1" as="geometry">
            <mxPoint x="-20" y="-3" as="offset"/>
          </mxGeometry>
        </mxCell>
        <mxCell id="vN8L1wxS-TLqOdtid_vG-46" value="" style="rounded=1;fillColor=#ffffff;strokeColor=#DFE1E5;shadow=1;html=1;arcSize=4;align=center;" parent="1" vertex="1">
          <mxGeometry x="640" y="130" width="110" height="150" as="geometry"/>
        </mxCell>
        <mxCell id="vN8L1wxS-TLqOdtid_vG-47" value="数字键盘" style="rounded=0;fillColor=#F4F5F7;strokeColor=none;shadow=0;html=1;align=center;fontSize=12;spacingLeft=10;fontColor=#253858;resizeWidth=1" parent="vN8L1wxS-TLqOdtid_vG-46" vertex="1">
          <mxGeometry width="110" height="33" relative="1" as="geometry">
            <mxPoint y="6" as="offset"/>
          </mxGeometry>
        </mxCell>
        <mxCell id="vN8L1wxS-TLqOdtid_vG-48" value="符号键盘" style="rounded=0;fillColor=none;strokeColor=none;shadow=0;html=1;align=center;fontSize=12;spacingLeft=10;fontColor=#253858;resizeWidth=1" parent="vN8L1wxS-TLqOdtid_vG-46" vertex="1">
          <mxGeometry width="110" height="33" relative="1" as="geometry">
            <mxPoint y="39" as="offset"/>
          </mxGeometry>
        </mxCell>
        <mxCell id="vN8L1wxS-TLqOdtid_vG-49" value="全键" style="rounded=0;fillColor=none;strokeColor=none;shadow=0;html=1;align=center;fontSize=12;spacingLeft=10;fontColor=#253858;resizeWidth=1" parent="vN8L1wxS-TLqOdtid_vG-46" vertex="1">
          <mxGeometry width="110" height="33" relative="1" as="geometry">
            <mxPoint y="72" as="offset"/>
          </mxGeometry>
        </mxCell>
        <mxCell id="vN8L1wxS-TLqOdtid_vG-53" value="" style="rounded=1;align=center;fillColor=#F1F2F4;strokeColor=none;html=1;fontColor=#596780;fontSize=12" parent="1" vertex="1">
          <mxGeometry x="96" y="550" width="351" height="60" as="geometry"/>
        </mxCell>
        <mxCell id="vN8L1wxS-TLqOdtid_vG-54" value="新建" style="rounded=1;fillColor=#0057D8;align=center;strokeColor=none;html=1;fontColor=#ffffff;fontSize=12" parent="1" vertex="1">
          <mxGeometry x="239.5" y="505.5" width="86" height="33" as="geometry"/>
        </mxCell>
        <mxCell id="vN8L1wxS-TLqOdtid_vG-57" value="PAGE1" style="rounded=1;arcSize=9;fillColor=#F7F8F9;align=left;spacingLeft=5;strokeColor=#DEE1E6;html=1;strokeWidth=2;fontSize=12" parent="1" vertex="1">
          <mxGeometry x="160" y="625" width="100" height="30" as="geometry"/>
        </mxCell>
        <mxCell id="vN8L1wxS-TLqOdtid_vG-60" value="PAGE1" style="rounded=1;fillColor=#0057D8;strokeColor=none;html=1;fontColor=#ffffff;align=center;verticalAlign=middle;fontStyle=0;fontSize=12" parent="1" vertex="1">
          <mxGeometry x="121" y="565" width="60" height="30" as="geometry"/>
        </mxCell>
        <mxCell id="vN8L1wxS-TLqOdtid_vG-61" value="PAGE2" style="rounded=1;align=center;fillColor=#F1F2F4;strokeColor=#919191;html=1;fontColor=#596780;fontSize=12" parent="1" vertex="1">
          <mxGeometry x="202" y="565" width="60" height="30" as="geometry"/>
        </mxCell>
        <mxCell id="vN8L1wxS-TLqOdtid_vG-62" value="" style="rounded=1;align=center;fillColor=#F1F2F4;strokeColor=none;html=1;fontColor=#596780;fontSize=12" parent="1" vertex="1">
          <mxGeometry x="89.5" y="1271" width="745" height="340" as="geometry"/>
        </mxCell>
        <mxCell id="vN8L1wxS-TLqOdtid_vG-63" value="ROW1" style="rounded=1;fillColor=#0057D8;strokeColor=none;html=1;fontColor=#ffffff;align=center;verticalAlign=middle;fontStyle=0;fontSize=12" parent="1" vertex="1">
          <mxGeometry x="172.5" y="1309" width="600" height="100" as="geometry"/>
        </mxCell>
        <mxCell id="vN8L1wxS-TLqOdtid_vG-64" value="ROW2" style="rounded=1;align=center;fillColor=#F1F2F4;strokeColor=#919191;html=1;fontColor=#596780;fontSize=12" parent="1" vertex="1">
          <mxGeometry x="175.5" y="1489" width="600" height="100" as="geometry"/>
        </mxCell>
        <mxCell id="vN8L1wxS-TLqOdtid_vG-72" value="COL1" style="rounded=1;fillColor=#0057D8;strokeColor=none;html=1;fontColor=#ffffff;align=center;verticalAlign=middle;fontStyle=0;fontSize=12" parent="1" vertex="1">
          <mxGeometry x="106.5" y="1289" width="49" height="290" as="geometry"/>
        </mxCell>
        <mxCell id="vN8L1wxS-TLqOdtid_vG-73" value="ROW1" style="rounded=1;arcSize=9;fillColor=#F7F8F9;align=left;spacingLeft=5;strokeColor=#DEE1E6;html=1;strokeWidth=2;fontSize=12" parent="1" vertex="1">
          <mxGeometry x="184.5" y="716" width="100" height="30" as="geometry"/>
        </mxCell>
        <mxCell id="vN8L1wxS-TLqOdtid_vG-74" value="水平偏移" style="fillColor=none;strokeColor=none;html=1;fontSize=11;fontStyle=0;align=center;fontColor=#596780;fontStyle=1;fontSize=11" parent="1" vertex="1">
          <mxGeometry x="104" y="764" width="60" height="20" as="geometry"/>
        </mxCell>
        <mxCell id="vN8L1wxS-TLqOdtid_vG-75" value="" style="rounded=1;arcSize=9;fillColor=#F7F8F9;align=left;spacingLeft=5;strokeColor=#DEE1E6;html=1;strokeWidth=2;fontSize=12" parent="1" vertex="1">
          <mxGeometry x="184" y="759" width="100" height="30" as="geometry"/>
        </mxCell>
        <mxCell id="vN8L1wxS-TLqOdtid_vG-76" value="垂直偏移" style="fillColor=none;strokeColor=none;html=1;fontSize=11;fontStyle=0;align=center;fontColor=#596780;fontStyle=1;fontSize=11" parent="1" vertex="1">
          <mxGeometry x="313.5" y="764" width="60" height="20" as="geometry"/>
        </mxCell>
        <mxCell id="vN8L1wxS-TLqOdtid_vG-77" value="" style="rounded=1;arcSize=9;fillColor=#F7F8F9;align=left;spacingLeft=5;strokeColor=#DEE1E6;html=1;strokeWidth=2;fontSize=12" parent="1" vertex="1">
          <mxGeometry x="393.5" y="759" width="100" height="30" as="geometry"/>
        </mxCell>
        <mxCell id="vN8L1wxS-TLqOdtid_vG-79" value="新建" style="rounded=1;fillColor=#0057D8;align=center;strokeColor=none;html=1;fontColor=#ffffff;fontSize=12" parent="1" vertex="1">
          <mxGeometry x="253" y="795" width="86" height="33" as="geometry"/>
        </mxCell>
        <mxCell id="vN8L1wxS-TLqOdtid_vG-90" value="Key_5" style="rounded=1;align=center;fillColor=#F1F2F4;strokeColor=#919191;html=1;fontColor=#596780;fontSize=12" parent="1" vertex="1">
          <mxGeometry x="219" y="1524" width="60" height="30" as="geometry"/>
        </mxCell>
        <mxCell id="vN8L1wxS-TLqOdtid_vG-91" value="Key_6" style="rounded=1;align=center;fillColor=#F1F2F4;strokeColor=#919191;html=1;fontColor=#596780;fontSize=12" parent="1" vertex="1">
          <mxGeometry x="344" y="1524" width="60" height="30" as="geometry"/>
        </mxCell>
        <mxCell id="vN8L1wxS-TLqOdtid_vG-92" value="Key_7" style="rounded=1;align=center;fillColor=#F1F2F4;strokeColor=#919191;html=1;fontColor=#596780;fontSize=12" parent="1" vertex="1">
          <mxGeometry x="538.5" y="1524" width="60" height="30" as="geometry"/>
        </mxCell>
        <mxCell id="vN8L1wxS-TLqOdtid_vG-93" value="Key_8" style="rounded=1;align=center;fillColor=#F1F2F4;strokeColor=#919191;html=1;fontColor=#596780;fontSize=12" parent="1" vertex="1">
          <mxGeometry x="662" y="1519" width="60" height="30" as="geometry"/>
        </mxCell>
        <mxCell id="vN8L1wxS-TLqOdtid_vG-95" value="Key_1" style="rounded=1;align=center;fillColor=#F1F2F4;strokeColor=#919191;html=1;fontColor=#596780;fontSize=12" parent="1" vertex="1">
          <mxGeometry x="218.5" y="1344" width="60" height="30" as="geometry"/>
        </mxCell>
        <mxCell id="vN8L1wxS-TLqOdtid_vG-96" value="Key_2" style="rounded=1;align=center;fillColor=#F1F2F4;strokeColor=#919191;html=1;fontColor=#596780;fontSize=12" parent="1" vertex="1">
          <mxGeometry x="344.5" y="1344" width="60" height="30" as="geometry"/>
        </mxCell>
        <mxCell id="vN8L1wxS-TLqOdtid_vG-97" value="Key_3" style="rounded=1;align=center;fillColor=#F1F2F4;strokeColor=#919191;html=1;fontColor=#596780;fontSize=12" parent="1" vertex="1">
          <mxGeometry x="538.5" y="1344" width="60" height="30" as="geometry"/>
        </mxCell>
        <mxCell id="vN8L1wxS-TLqOdtid_vG-98" value="Key_4" style="rounded=1;align=center;fillColor=#F1F2F4;strokeColor=#919191;html=1;fontColor=#596780;fontSize=12" parent="1" vertex="1">
          <mxGeometry x="662" y="1344" width="60" height="30" as="geometry"/>
        </mxCell>
        <mxCell id="vN8L1wxS-TLqOdtid_vG-99" value="保存" style="rounded=1;fillColor=#0057D8;align=center;strokeColor=none;html=1;fontColor=#ffffff;fontSize=12" parent="1" vertex="1">
          <mxGeometry x="434" y="713" width="86" height="33" as="geometry"/>
        </mxCell>
        <mxCell id="vN8L1wxS-TLqOdtid_vG-132" value="新建" style="rounded=1;fillColor=#0057D8;align=center;strokeColor=none;html=1;fontColor=#ffffff;fontSize=12" parent="1" vertex="1">
          <mxGeometry x="250" y="886" width="86" height="33" as="geometry"/>
        </mxCell>
        <mxCell id="vN8L1wxS-TLqOdtid_vG-133" value="COL1" style="rounded=1;arcSize=9;fillColor=#F7F8F9;align=left;spacingLeft=5;strokeColor=#DEE1E6;html=1;strokeWidth=2;fontSize=12" parent="1" vertex="1">
          <mxGeometry x="188.5" y="928" width="100" height="30" as="geometry"/>
        </mxCell>
        <mxCell id="vN8L1wxS-TLqOdtid_vG-134" value="水平偏移" style="fillColor=none;strokeColor=none;html=1;fontSize=11;fontStyle=0;align=center;fontColor=#596780;fontStyle=1;fontSize=11" parent="1" vertex="1">
          <mxGeometry x="116" y="1024" width="60" height="20" as="geometry"/>
        </mxCell>
        <mxCell id="vN8L1wxS-TLqOdtid_vG-135" value="" style="rounded=1;arcSize=9;fillColor=#F7F8F9;align=left;spacingLeft=5;strokeColor=#DEE1E6;html=1;strokeWidth=2;fontSize=12" parent="1" vertex="1">
          <mxGeometry x="196" y="1019" width="100" height="30" as="geometry"/>
        </mxCell>
        <mxCell id="vN8L1wxS-TLqOdtid_vG-136" value="垂直偏移" style="fillColor=none;strokeColor=none;html=1;fontSize=11;fontStyle=0;align=center;fontColor=#596780;fontStyle=1;fontSize=11" parent="1" vertex="1">
          <mxGeometry x="325.5" y="1024" width="60" height="20" as="geometry"/>
        </mxCell>
        <mxCell id="vN8L1wxS-TLqOdtid_vG-137" value="" style="rounded=1;arcSize=9;fillColor=#F7F8F9;align=left;spacingLeft=5;strokeColor=#DEE1E6;html=1;strokeWidth=2;fontSize=12" parent="1" vertex="1">
          <mxGeometry x="405.5" y="1019" width="100" height="30" as="geometry"/>
        </mxCell>
        <mxCell id="vN8L1wxS-TLqOdtid_vG-141" value="保存" style="rounded=1;fillColor=#0057D8;align=center;strokeColor=none;html=1;fontColor=#ffffff;fontSize=12" parent="1" vertex="1">
          <mxGeometry x="439.5" y="928" width="86" height="33" as="geometry"/>
        </mxCell>
        <mxCell id="vN8L1wxS-TLqOdtid_vG-246" value="生成预览" style="rounded=1;fillColor=#6666FF;align=center;strokeColor=none;html=1;fontColor=#ffffff;fontSize=12" parent="1" vertex="1">
          <mxGeometry x="571.5" y="1239" width="90" height="30" as="geometry"/>
        </mxCell>
        <mxCell id="vN8L1wxS-TLqOdtid_vG-257" value="宽" style="fillColor=none;strokeColor=none;html=1;fontSize=11;fontStyle=0;align=center;fontColor=#596780;fontStyle=1;fontSize=11" parent="1" vertex="1">
          <mxGeometry x="108" y="984" width="60" height="20" as="geometry"/>
        </mxCell>
        <mxCell id="vN8L1wxS-TLqOdtid_vG-258" value="100" style="rounded=1;arcSize=9;fillColor=#F7F8F9;align=left;spacingLeft=5;strokeColor=#DEE1E6;html=1;strokeWidth=2;fontSize=12" parent="1" vertex="1">
          <mxGeometry x="188" y="979" width="100" height="30" as="geometry"/>
        </mxCell>
        <mxCell id="vN8L1wxS-TLqOdtid_vG-259" value="高" style="fillColor=none;strokeColor=none;html=1;fontSize=11;fontStyle=0;align=center;fontColor=#596780;fontStyle=1;fontSize=11" parent="1" vertex="1">
          <mxGeometry x="368" y="984" width="60" height="20" as="geometry"/>
        </mxCell>
        <mxCell id="vN8L1wxS-TLqOdtid_vG-260" value="200" style="rounded=1;arcSize=9;fillColor=#F7F8F9;align=left;spacingLeft=5;strokeColor=#DEE1E6;html=1;strokeWidth=2;fontSize=12" parent="1" vertex="1">
          <mxGeometry x="438" y="979" width="100" height="30" as="geometry"/>
        </mxCell>
        <mxCell id="vN8L1wxS-TLqOdtid_vG-262" value="X" style="fillColor=none;strokeColor=none;html=1;fontSize=11;fontStyle=0;align=center;fontColor=#596780;fontStyle=1;fontSize=11" parent="1" vertex="1">
          <mxGeometry x="99.5" y="1173" width="60" height="20" as="geometry"/>
        </mxCell>
        <mxCell id="vN8L1wxS-TLqOdtid_vG-263" value="100" style="rounded=1;arcSize=9;fillColor=#F7F8F9;align=left;spacingLeft=5;strokeColor=#DEE1E6;html=1;strokeWidth=2;fontSize=12" parent="1" vertex="1">
          <mxGeometry x="152" y="1168" width="49" height="30" as="geometry"/>
        </mxCell>
        <mxCell id="vN8L1wxS-TLqOdtid_vG-267" value="Y" style="fillColor=none;strokeColor=none;html=1;fontSize=11;fontStyle=0;align=center;fontColor=#596780;fontStyle=1;fontSize=11" parent="1" vertex="1">
          <mxGeometry x="215" y="1173" width="60" height="20" as="geometry"/>
        </mxCell>
        <mxCell id="vN8L1wxS-TLqOdtid_vG-268" value="100" style="rounded=1;arcSize=9;fillColor=#F7F8F9;align=left;spacingLeft=5;strokeColor=#DEE1E6;html=1;strokeWidth=2;fontSize=12" parent="1" vertex="1">
          <mxGeometry x="267.5" y="1168" width="49" height="30" as="geometry"/>
        </mxCell>
        <mxCell id="vN8L1wxS-TLqOdtid_vG-269" value="宽" style="fillColor=none;strokeColor=none;html=1;fontSize=11;fontStyle=0;align=center;fontColor=#596780;fontStyle=1;fontSize=11" parent="1" vertex="1">
          <mxGeometry x="322.5" y="1173" width="60" height="20" as="geometry"/>
        </mxCell>
        <mxCell id="vN8L1wxS-TLqOdtid_vG-270" value="100" style="rounded=1;arcSize=9;fillColor=#F7F8F9;align=left;spacingLeft=5;strokeColor=#DEE1E6;html=1;strokeWidth=2;fontSize=12" parent="1" vertex="1">
          <mxGeometry x="375" y="1168" width="49" height="30" as="geometry"/>
        </mxCell>
        <mxCell id="vN8L1wxS-TLqOdtid_vG-271" value="高" style="fillColor=none;strokeColor=none;html=1;fontSize=11;fontStyle=0;align=center;fontColor=#596780;fontStyle=1;fontSize=11" parent="1" vertex="1">
          <mxGeometry x="438" y="1173" width="60" height="20" as="geometry"/>
        </mxCell>
        <mxCell id="vN8L1wxS-TLqOdtid_vG-272" value="100" style="rounded=1;arcSize=9;fillColor=#F7F8F9;align=left;spacingLeft=5;strokeColor=#DEE1E6;html=1;strokeWidth=2;fontSize=12" parent="1" vertex="1">
          <mxGeometry x="490.5" y="1168" width="49" height="30" as="geometry"/>
        </mxCell>
        <mxCell id="vN8L1wxS-TLqOdtid_vG-277" value="行数" style="fillColor=none;strokeColor=none;html=1;fontSize=11;fontStyle=0;align=center;fontColor=#596780;fontStyle=1;fontSize=11" parent="1" vertex="1">
          <mxGeometry x="101.5" y="1210.5" width="60" height="20" as="geometry"/>
        </mxCell>
        <mxCell id="vN8L1wxS-TLqOdtid_vG-278" value="4" style="rounded=1;arcSize=9;fillColor=#F7F8F9;align=left;spacingLeft=5;strokeColor=#DEE1E6;html=1;strokeWidth=2;fontSize=12" parent="1" vertex="1">
          <mxGeometry x="154" y="1205.5" width="49" height="30" as="geometry"/>
        </mxCell>
        <mxCell id="vN8L1wxS-TLqOdtid_vG-279" value="列数" style="fillColor=none;strokeColor=none;html=1;fontSize=11;fontStyle=0;align=center;fontColor=#596780;fontStyle=1;fontSize=11" parent="1" vertex="1">
          <mxGeometry x="217" y="1210.5" width="60" height="20" as="geometry"/>
        </mxCell>
        <mxCell id="vN8L1wxS-TLqOdtid_vG-280" value="1" style="rounded=1;arcSize=9;fillColor=#F7F8F9;align=left;spacingLeft=5;strokeColor=#DEE1E6;html=1;strokeWidth=2;fontSize=12" parent="1" vertex="1">
          <mxGeometry x="269.5" y="1205.5" width="49" height="30" as="geometry"/>
        </mxCell>
        <mxCell id="vN8L1wxS-TLqOdtid_vG-281" value="新建" style="rounded=1;fillColor=#0057D8;align=center;strokeColor=none;html=1;fontColor=#ffffff;fontSize=12" parent="1" vertex="1">
          <mxGeometry x="230.5" y="1122" width="86" height="33" as="geometry"/>
        </mxCell>
        <mxCell id="tmjR7Qj9dmBTTIml7QTe-1" value="键盘设计" style="rounded=1;fillColor=#0065FF;strokeColor=none;html=1;fontColor=#ffffff;align=center;verticalAlign=middle;whiteSpace=wrap;fontSize=18;fontStyle=1;arcSize=50" parent="1" vertex="1">
          <mxGeometry x="260" y="20" width="410" height="40" as="geometry"/>
        </mxCell>
        <mxCell id="tmjR7Qj9dmBTTIml7QTe-2" value="名称" style="fillColor=none;strokeColor=none;html=1;fontSize=11;fontStyle=0;align=center;fontColor=#596780;fontStyle=1;fontSize=11" parent="1" vertex="1">
          <mxGeometry x="108" y="142" width="60" height="20" as="geometry"/>
        </mxCell>
        <mxCell id="tmjR7Qj9dmBTTIml7QTe-3" value="" style="rounded=1;arcSize=9;fillColor=#F7F8F9;align=left;spacingLeft=5;strokeColor=#DEE1E6;html=1;strokeWidth=2;fontSize=12" parent="1" vertex="1">
          <mxGeometry x="188" y="137" width="100" height="30" as="geometry"/>
        </mxCell>
        <mxCell id="tmjR7Qj9dmBTTIml7QTe-4" value="生成" style="rounded=1;fillColor=#0057D8;align=center;strokeColor=none;html=1;fontColor=#ffffff;fontSize=12" parent="1" vertex="1">
          <mxGeometry x="338.5" y="134" width="86" height="33" as="geometry"/>
        </mxCell>
        <mxCell id="tmjR7Qj9dmBTTIml7QTe-5" value="保存" style="rounded=1;fillColor=#0057D8;align=center;strokeColor=none;html=1;fontColor=#ffffff;fontSize=12" parent="1" vertex="1">
          <mxGeometry x="438.5" y="65" width="86" height="33" as="geometry"/>
        </mxCell>
        <mxCell id="tmjR7Qj9dmBTTIml7QTe-6" value="选择" style="rounded=1;fillColor=#0057D8;align=center;strokeColor=none;html=1;fontColor=#ffffff;fontSize=12" parent="1" vertex="1">
          <mxGeometry x="297.5" y="320.5" width="86" height="33" as="geometry"/>
        </mxCell>
        <mxCell id="tmjR7Qj9dmBTTIml7QTe-7" value="触摸模式" style="fillColor=none;strokeColor=none;html=1;fontSize=11;fontStyle=0;align=center;fontColor=#596780;fontStyle=1;fontSize=11" parent="1" vertex="1">
          <mxGeometry x="417" y="324.5" width="60" height="20" as="geometry"/>
        </mxCell>
        <mxCell id="tmjR7Qj9dmBTTIml7QTe-8" value="滑动模式" style="rounded=1;fillColor=#253858;strokeColor=none;html=1;fontColor=#ffffff;align=left;fontSize=12;spacingLeft=10" parent="1" vertex="1">
          <mxGeometry x="522.5" y="322" width="100" height="33" as="geometry"/>
        </mxCell>
        <mxCell id="tmjR7Qj9dmBTTIml7QTe-9" value="" style="shape=triangle;direction=south;fillColor=#ffffff;strokeColor=none;html=1" parent="tmjR7Qj9dmBTTIml7QTe-8" vertex="1">
          <mxGeometry x="1" y="0.5" width="12" height="6" relative="1" as="geometry">
            <mxPoint x="-20" y="-3" as="offset"/>
          </mxGeometry>
        </mxCell>
        <mxCell id="tmjR7Qj9dmBTTIml7QTe-10" value="" style="rounded=1;fillColor=#ffffff;strokeColor=#DFE1E5;shadow=1;html=1;arcSize=4;align=center;" parent="1" vertex="1">
          <mxGeometry x="650" y="290" width="110" height="110" as="geometry"/>
        </mxCell>
        <mxCell id="tmjR7Qj9dmBTTIml7QTe-11" value="跟随模式" style="rounded=0;fillColor=#F4F5F7;strokeColor=none;shadow=0;html=1;align=center;fontSize=12;spacingLeft=10;fontColor=#253858;resizeWidth=1" parent="tmjR7Qj9dmBTTIml7QTe-10" vertex="1">
          <mxGeometry width="110" height="33" relative="1" as="geometry">
            <mxPoint y="6" as="offset"/>
          </mxGeometry>
        </mxCell>
        <mxCell id="tmjR7Qj9dmBTTIml7QTe-12" value="滑动模式" style="rounded=0;fillColor=none;strokeColor=none;shadow=0;html=1;align=center;fontSize=12;spacingLeft=10;fontColor=#253858;resizeWidth=1" parent="tmjR7Qj9dmBTTIml7QTe-10" vertex="1">
          <mxGeometry width="110" height="30" relative="1" as="geometry">
            <mxPoint y="39" as="offset"/>
          </mxGeometry>
        </mxCell>
        <mxCell id="tmjR7Qj9dmBTTIml7QTe-13" value="手势模式" style="rounded=0;fillColor=none;strokeColor=none;shadow=0;html=1;align=center;fontSize=12;spacingLeft=10;fontColor=#253858;resizeWidth=1" parent="tmjR7Qj9dmBTTIml7QTe-10" vertex="1">
          <mxGeometry width="110" height="33" relative="1" as="geometry">
            <mxPoint y="72" as="offset"/>
          </mxGeometry>
        </mxCell>
        <mxCell id="tmjR7Qj9dmBTTIml7QTe-15" value="行名称" style="fillColor=none;strokeColor=none;html=1;fontSize=11;fontStyle=0;align=center;fontColor=#596780;fontStyle=1;fontSize=11" parent="1" vertex="1">
          <mxGeometry x="111.5" y="717.5" width="60" height="20" as="geometry"/>
        </mxCell>
        <mxCell id="tmjR7Qj9dmBTTIml7QTe-16" value="删除" style="rounded=1;fillColor=#0057D8;align=center;strokeColor=none;html=1;fontColor=#ffffff;fontSize=12" parent="1" vertex="1">
          <mxGeometry x="322" y="711" width="86" height="33" as="geometry"/>
        </mxCell>
        <mxCell id="tmjR7Qj9dmBTTIml7QTe-20" value="列名称" style="fillColor=none;strokeColor=none;html=1;fontSize=11;fontStyle=0;align=center;fontColor=#596780;fontStyle=1;fontSize=11" parent="1" vertex="1">
          <mxGeometry x="109.5" y="933" width="60" height="20" as="geometry"/>
        </mxCell>
        <mxCell id="tmjR7Qj9dmBTTIml7QTe-21" value="删除" style="rounded=1;fillColor=#0057D8;align=center;strokeColor=none;html=1;fontColor=#ffffff;fontSize=12" parent="1" vertex="1">
          <mxGeometry x="325" y="928" width="86" height="33" as="geometry"/>
        </mxCell>
        <mxCell id="tmjR7Qj9dmBTTIml7QTe-23" value="新建" style="rounded=1;fillColor=#0057D8;align=center;strokeColor=none;html=1;fontColor=#ffffff;fontSize=12" parent="1" vertex="1">
          <mxGeometry x="252" y="1053.5" width="86" height="33" as="geometry"/>
        </mxCell>
        <mxCell id="tmjR7Qj9dmBTTIml7QTe-28" value="保存" style="rounded=1;fillColor=#0057D8;align=center;strokeColor=none;html=1;fontColor=#ffffff;fontSize=12" parent="1" vertex="1">
          <mxGeometry x="458.5" y="1122" width="86" height="33" as="geometry"/>
        </mxCell>
        <mxCell id="tmjR7Qj9dmBTTIml7QTe-29" value="删除" style="rounded=1;fillColor=#0057D8;align=center;strokeColor=none;html=1;fontColor=#ffffff;fontSize=12" parent="1" vertex="1">
          <mxGeometry x="344" y="1122" width="86" height="33" as="geometry"/>
        </mxCell>
        <mxCell id="tmjR7Qj9dmBTTIml7QTe-36" value="新建" style="rounded=1;fillColor=#0057D8;align=center;strokeColor=none;html=1;fontColor=#ffffff;fontSize=12" parent="1" vertex="1">
          <mxGeometry x="251" y="670" width="86" height="33" as="geometry"/>
        </mxCell>
        <mxCell id="tmjR7Qj9dmBTTIml7QTe-38" value="&lt;span style=&quot;color: rgb(89 , 103 , 128) ; font-size: 11px ; text-align: left&quot;&gt;行&lt;/span&gt;" style="dashed=0;html=1;rounded=1;fillColor=#DFE1E6;strokeColor=#DFE1E6;fontSize=12;align=center;fontStyle=1;strokeWidth=2;fontColor=#42526E" parent="1" vertex="1">
          <mxGeometry x="107.5" y="673" width="90" height="30" as="geometry"/>
        </mxCell>
        <mxCell id="tmjR7Qj9dmBTTIml7QTe-39" value="&lt;span style=&quot;color: rgb(89 , 103 , 128) ; font-size: 11px ; text-align: left&quot;&gt;列&lt;/span&gt;" style="dashed=0;html=1;rounded=1;fillColor=#DFE1E6;strokeColor=#DFE1E6;fontSize=12;align=center;fontStyle=1;strokeWidth=2;fontColor=#42526E" parent="1" vertex="1">
          <mxGeometry x="107.5" y="889" width="90" height="30" as="geometry"/>
        </mxCell>
        <mxCell id="tmjR7Qj9dmBTTIml7QTe-40" value="&lt;span style=&quot;color: rgb(89 , 103 , 128) ; font-size: 11px ; text-align: left&quot;&gt;按键&lt;/span&gt;" style="dashed=0;html=1;rounded=1;fillColor=#DFE1E6;strokeColor=#DFE1E6;fontSize=12;align=center;fontStyle=1;strokeWidth=2;fontColor=#42526E" parent="1" vertex="1">
          <mxGeometry x="148" y="798" width="90" height="30" as="geometry"/>
        </mxCell>
        <mxCell id="tmjR7Qj9dmBTTIml7QTe-41" value="&lt;span style=&quot;color: rgb(89 , 103 , 128) ; font-size: 11px ; text-align: left&quot;&gt;按键&lt;/span&gt;" style="dashed=0;html=1;rounded=1;fillColor=#DFE1E6;strokeColor=#DFE1E6;fontSize=12;align=center;fontStyle=1;strokeWidth=2;fontColor=#42526E" parent="1" vertex="1">
          <mxGeometry x="148.5" y="1056.5" width="90" height="30" as="geometry"/>
        </mxCell>
        <mxCell id="tmjR7Qj9dmBTTIml7QTe-42" value="&lt;span style=&quot;color: rgb(89 , 103 , 128) ; font-size: 11px&quot;&gt;CodeView&lt;/span&gt;" style="dashed=0;html=1;rounded=1;fillColor=#DFE1E6;strokeColor=#DFE1E6;fontSize=12;align=center;fontStyle=1;strokeWidth=2;fontColor=#42526E" parent="1" vertex="1">
          <mxGeometry x="119.5" y="1125" width="90" height="30" as="geometry"/>
        </mxCell>
        <mxCell id="tmjR7Qj9dmBTTIml7QTe-44" value="导入" style="rounded=1;fillColor=#0057D8;align=center;strokeColor=none;html=1;fontColor=#ffffff;fontSize=12" parent="1" vertex="1">
          <mxGeometry x="655" y="65" width="80" height="33" as="geometry"/>
        </mxCell>
        <mxCell id="tmjR7Qj9dmBTTIml7QTe-45" value="&lt;span style=&quot;color: rgb(89 , 103 , 128) ; font-size: 11px ; text-align: left&quot;&gt;基础按键&lt;/span&gt;" style="dashed=0;html=1;rounded=1;fillColor=#DFE1E6;strokeColor=#DFE1E6;fontSize=12;align=center;fontStyle=1;strokeWidth=2;fontColor=#42526E" parent="1" vertex="1">
          <mxGeometry x="89.5" y="461" width="90" height="30" as="geometry"/>
        </mxCell>
        <mxCell id="tmjR7Qj9dmBTTIml7QTe-46" value="修改" style="rounded=1;fillColor=#0057D8;align=center;strokeColor=none;html=1;fontColor=#ffffff;fontSize=12" parent="1" vertex="1">
          <mxGeometry x="239.5" y="461" width="86" height="33" as="geometry"/>
        </mxCell>
        <mxCell id="tmjR7Qj9dmBTTIml7QTe-51" value="竖屏" style="html=1;shadow=0;dashed=0;shape=mxgraph.atlassian.checkbox_2;fillColor=#0057D8;strokeColor=none;align=left;verticalAlign=middle;fontStyle=0;fontSize=12;labelPosition=right;verticalLabelPosition=middle;spacingLeft=10" parent="1" vertex="1">
          <mxGeometry x="363" y="110" width="12" height="12" as="geometry"/>
        </mxCell>
        <mxCell id="tmjR7Qj9dmBTTIml7QTe-52" value="横屏" style="rounded=1;fillColor=#F0F2F5;strokeColor=#D8DCE3;align=left;verticalAlign=middle;fontStyle=0;fontSize=12;labelPosition=right;verticalLabelPosition=middle;spacingLeft=10;html=1;shadow=0;dashed=0;arcSize=0;" parent="1" vertex="1">
          <mxGeometry x="458.5" y="110" width="12" height="12" as="geometry"/>
        </mxCell>
        <mxCell id="tmjR7Qj9dmBTTIml7QTe-74" value="水平间隔-全键" style="fillColor=none;strokeColor=none;html=1;fontSize=11;fontStyle=0;align=center;fontColor=#596780;fontStyle=1;fontSize=11" parent="1" vertex="1">
          <mxGeometry x="504.5" y="433" width="60" height="20" as="geometry"/>
        </mxCell>
        <mxCell id="tmjR7Qj9dmBTTIml7QTe-75" value="" style="rounded=1;arcSize=9;fillColor=#F7F8F9;align=left;spacingLeft=5;strokeColor=#DEE1E6;html=1;strokeWidth=2;fontSize=12" parent="1" vertex="1">
          <mxGeometry x="584.5" y="428" width="100" height="30" as="geometry"/>
        </mxCell>
        <mxCell id="tmjR7Qj9dmBTTIml7QTe-76" value="&lt;span style=&quot;color: rgb(89 , 103 , 128) ; font-size: 11px&quot;&gt;页设置&lt;/span&gt;" style="dashed=0;html=1;rounded=1;fillColor=#DFE1E6;strokeColor=#DFE1E6;fontSize=12;align=center;fontStyle=1;strokeWidth=2;fontColor=#42526E" parent="1" vertex="1">
          <mxGeometry x="89" y="505.5" width="90" height="30" as="geometry"/>
        </mxCell>
        <mxCell id="tmjR7Qj9dmBTTIml7QTe-79" value="页名称" style="fillColor=none;strokeColor=none;html=1;fontSize=11;fontStyle=0;align=center;fontColor=#596780;fontStyle=1;fontSize=11" parent="1" vertex="1">
          <mxGeometry x="78.5" y="629" width="60" height="20" as="geometry"/>
        </mxCell>
        <mxCell id="tmjR7Qj9dmBTTIml7QTe-80" value="保存" style="rounded=1;fillColor=#0057D8;align=center;strokeColor=none;html=1;fontColor=#ffffff;fontSize=12" parent="1" vertex="1">
          <mxGeometry x="397" y="622" width="86" height="33" as="geometry"/>
        </mxCell>
        <mxCell id="tmjR7Qj9dmBTTIml7QTe-81" value="删除" style="rounded=1;fillColor=#0057D8;align=center;strokeColor=none;html=1;fontColor=#ffffff;fontSize=12" parent="1" vertex="1">
          <mxGeometry x="285" y="622" width="86" height="33" as="geometry"/>
        </mxCell>
        <mxCell id="8xvW2N3c5YefEf4rAdqY-6" value="&lt;span style=&quot;font-size: 11px&quot;&gt;&lt;font color=&quot;#ff3333&quot;&gt;缺少分辨率和设备信息&lt;br&gt;&lt;/font&gt;安卓：&lt;br&gt;分辨率：&lt;br&gt;优先1080&lt;br&gt;1080 720 480&lt;br&gt;&lt;br&gt;IOS:&lt;br&gt;设备：&lt;br&gt;优先 iPhone6&lt;br&gt;i&lt;/span&gt;&lt;span style=&quot;font-size: 11px&quot;&gt;iPhone6&amp;nbsp; 宽高(750, 432)&lt;/span&gt;&lt;div&gt;&lt;span style=&quot;font-size: 11px&quot;&gt;iPhone6P 宽高(1242, 678)&lt;/span&gt;&lt;/div&gt;&lt;div&gt;&lt;span style=&quot;font-size: 11px&quot;&gt;iPhoneX&amp;nbsp; 宽高(750, 432)&lt;/span&gt;&lt;/div&gt;&lt;div&gt;&lt;span style=&quot;font-size: 11px&quot;&gt;iPhone5&amp;nbsp; 宽高(640, 432)&lt;/span&gt;&lt;/div&gt;&lt;div&gt;&lt;span style=&quot;font-size: 11px&quot;&gt;iPad&amp;nbsp; &amp;nbsp; &amp;nbsp;宽高(1536, 528)&lt;/span&gt;&lt;/div&gt;&lt;div&gt;&lt;span style=&quot;font-size: 11px&quot;&gt;iPadPro&amp;nbsp; 宽高(2048, 590)&lt;/span&gt;&lt;/div&gt;" style="rounded=1;arcSize=3;fillColor=#ffffff;strokeColor=#DFE1E5;strokeWidth=1;shadow=1;align=left;html=1;whiteSpace=wrap;spacingLeft=20;spacingRight=20;fontSize=12" parent="1" vertex="1">
          <mxGeometry x="880" y="9" width="167.5" height="363" as="geometry"/>
        </mxCell>
        <mxCell id="8xvW2N3c5YefEf4rAdqY-18" value="保存成模板" style="rounded=1;fillColor=#0057D8;align=center;strokeColor=none;html=1;fontColor=#ffffff;fontSize=12" parent="1" vertex="1">
          <mxGeometry x="554" y="65" width="86" height="33" as="geometry"/>
        </mxCell>
      </root>
    </mxGraphModel>
  </diagram>
</mxfile>
